<?xml version="1.0" encoding="UTF-8" standalone="no"?><!DOCTYPE svg PUBLIC "-//W3C//DTD SVG 1.1//EN" "http://www.w3.org/Graphics/SVG/1.1/DTD/svg11.dtd"><svg width="100%" height="100%" viewBox="0 0 300 300" version="1.1" xmlns="http://www.w3.org/2000/svg" xmlns:xlink="http://www.w3.org/1999/xlink" xml:space="preserve" xmlns:serif="http://www.serif.com/" style="fill-rule:evenodd;clip-rule:evenodd;stroke-linejoin:round;stroke-miterlimit:2;"><path d="M15.027,15.003l-0,75.579l75.579,0l-0,-75.579l-75.579,0Zm97.173,0l-0,10.797l-10.797,0l-0,21.594l10.797,0l-0,10.797l-10.797,0l-0,43.188l10.797,0l-0,-32.391l10.797,0l0,32.391l10.797,0l0,10.797l10.797,0l0,21.594l-32.391,0l-0,10.797l10.797,0l0,10.798l43.188,-0l0,-10.798l32.391,0l0,10.798l10.797,-0l0,10.797l-10.797,-0l0,10.797l10.797,-0l0,10.797l-21.594,-0l0,-10.797l-10.797,-0l0,-10.797l-10.797,-0l0,10.797l-10.797,-0l0,-10.797l-32.391,-0l0,10.797l10.797,-0l0,10.797l53.985,-0l0,21.594l-10.797,-0l0,-10.797l-43.188,-0l0,-10.797l-10.797,-0l0,-10.797l-10.797,-0l-0,-10.797l-10.797,-0l-0,-10.797l-10.797,-0l-0,-10.798l-10.797,0l-0,-10.797l-21.594,0l-0,10.797l-10.797,0l-0,-10.797l-10.797,0l-0,-10.797l-21.594,0l-0,10.797l21.594,0l-0,10.797l-10.797,0l-0,21.595l10.797,-0l-0,-10.797l32.391,-0l-0,10.797l10.797,-0l-0,10.797l10.797,-0l-0,-10.797l-10.797,-0l-0,-10.797l10.797,-0l-0,10.797l10.797,-0l-0,10.797l10.797,-0l-0,10.797l10.797,-0l0,10.797l10.797,-0l0,10.797l21.594,-0l0,10.797l10.797,-0l0,-10.797l10.797,-0l0,10.797l10.797,-0l0,21.594l32.391,-0l0,21.594l21.594,-0l0,10.797l10.797,-0l0,-10.797l-10.797,-0l0,-10.797l10.797,-0l0,10.797l10.797,-0l0,-21.594l-10.797,-0l0,-10.797l32.392,-0l-0,-32.391l-10.797,-0l-0,10.797l-10.798,-0l0,10.797l-10.797,-0l0,-21.594l10.797,-0l0,-10.797l-21.594,-0l0,-21.594l-10.797,-0l0,-21.595l-10.797,0l0,-32.391l21.594,0l0,-10.797l-32.391,0l0,32.391l-10.797,0l0,-32.391l-64.782,0l0,-32.391l-10.797,0l0,-21.594l-10.797,0l-0,-10.797l10.797,0l0,-10.797l10.797,0l0,10.797l21.594,0l0,-10.797l-10.797,0l0,-10.797l-32.391,0Zm53.985,0l0,10.797l10.797,0l0,10.797l10.797,0l0,10.797l10.797,0l0,-10.797l-10.797,0l0,-21.594l-21.594,0Zm43.188,0l0,75.579l75.58,0l-0,-75.579l-75.58,0Zm-129.564,10.797l-0,53.985l-53.985,0l-0,-53.985l53.985,0Zm194.347,0l-0,53.985l-53.986,0l0,-53.985l53.986,0Zm-237.535,10.797l-0,32.391l32.391,0l-0,-32.391l-32.391,0Zm129.564,0l0,21.594l10.797,0l0,21.594l10.797,0l0,10.797l10.797,0l0,-32.391l-21.594,0l0,-21.594l-10.797,0Zm64.782,0l0,32.391l32.391,0l0,-32.391l-32.391,0Zm-97.173,21.594l0,10.797l10.797,0l0,21.594l10.797,0l0,-10.797l10.797,0l0,10.797l10.797,0l0,-10.797l-10.797,0l0,-21.594l-10.797,0l0,10.797l-10.797,0l0,-10.797l-10.797,0Zm-118.767,43.188l-0,10.797l21.594,0l-0,-10.797l-21.594,0Zm32.391,0l-0,21.594l21.594,0l-0,-10.797l-10.797,0l-0,-10.797l-10.797,0Zm32.391,0l-0,10.797l10.797,0l-0,10.797l10.797,0l-0,-21.594l-21.594,0Zm172.752,0l0,10.797l21.595,0l-0,10.797l-10.798,0l0,10.797l21.595,0l-0,-21.594l-10.797,0l-0,-10.797l-21.595,0Zm-140.361,10.797l-0,10.797l10.797,0l0,-10.797l-10.797,0Zm75.579,0l0,21.594l-10.797,0l0,-10.797l-21.594,0l0,-10.797l32.391,0Zm-107.97,10.797l-0,10.797l10.797,0l-0,10.797l10.797,0l-0,-10.797l-10.797,0l-0,-10.797l-10.797,0Zm151.158,0l0,21.594l10.797,0l0,21.595l10.797,-0l0,10.797l10.797,-0l0,10.797l10.798,-0l-0,-10.797l-10.798,-0l0,-21.594l-10.797,-0l0,-10.798l-10.797,0l0,-21.594l-10.797,0Zm32.391,21.594l0,10.798l10.798,-0l-0,21.594l10.797,-0l-0,-32.392l-21.595,0Zm-248.331,21.595l-0,10.797l10.797,-0l-0,10.797l-10.797,-0l-0,10.797l53.985,-0l-0,-32.391l-21.594,-0l-0,21.594l-10.797,-0l-0,-10.797l-10.797,-0l-0,-10.797l-10.797,-0Zm215.94,10.797l0,10.797l-10.797,-0l0,-10.797l10.797,-0Zm-151.158,10.797l-0,10.797l21.594,-0l-0,21.594l21.594,-0l0,-10.797l-10.797,-0l-0,-21.594l-32.391,-0Zm151.158,10.797l0,32.391l-32.391,-0l0,-32.391l32.391,-0Zm-215.94,10.797l-0,75.579l75.579,-0l-0,-75.579l-75.579,-0Zm194.346,-0l0,10.797l10.797,-0l0,-10.797l-10.797,-0Zm-129.564,10.797l-0,53.985l-53.985,-0l-0,-53.985l53.985,-0Zm53.985,-0l0,10.797l-21.594,-0l-0,10.797l10.797,-0l0,21.594l-21.594,-0l-0,21.594l10.797,-0l-0,-10.797l21.594,-0l0,-32.391l10.797,-0l0,10.797l10.797,-0l0,10.797l-10.797,-0l0,21.594l21.594,-0l0,-10.797l10.797,-0l0,10.797l32.391,-0l0,-10.797l-10.797,-0l0,-10.797l-10.797,-0l0,-10.797l-10.797,-0l0,10.797l-10.797,-0l0,-10.797l-10.797,-0l0,-10.797l21.594,-0l0,-10.797l-21.594,-0l0,-10.797l-21.594,-0Zm-97.173,10.797l-0,32.391l32.391,-0l-0,-32.391l-32.391,-0Zm64.782,10.797l-0,10.797l10.797,-0l-0,-10.797l-10.797,-0Zm97.173,10.797l0,10.797l10.797,-0l0,-10.797l-10.797,-0Zm75.58,-0l-0,10.797l10.797,-0l-0,-10.797l-10.797,-0Zm-53.986,21.594l0,10.797l10.797,-0l0,-10.797l-10.797,-0Zm43.188,-0l0,10.797l21.595,-0l-0,-10.797l-21.595,-0Z"/></svg>